<svg width="372.000000pt" height="150.000000pt" viewBox="0 0 372.000000 150.000000" xmlns="http://www.w3.org/2000/svg">
  <g transform="translate(0.000000,150.000000) scale(0.100000,-0.100000)" fill="#fefefe" stroke="none">
    <path d="M2 848 l3 -653 2 507 3 507 391 3 391 3 19 24 19 23 0 119 0 119
-415 0 -415 0 2 -652z" />
    <path d="M880 1385 l0 -116 -14 -32 c-7 -18 -25 -41 -39 -50 l-26 -17 -371 0
-370 0 0 -550 0 -550 359 0 359 0 23 19 24 19 3 366 3 366 24 0 25 0 0 -352 0
-353 -11 -38 c-5 -20 -20 -46 -31 -57 l-22 -20 -402 0 -403 0 -4 48 -3 47 -2
-57 -2 -58 1860 0 1860 0 0 60 c0 69 -6 73 -37 26 -84 -130 -297 -44 -269 109
9 46 57 101 102 115 l35 12 35 -7 35 -6 40 -36 c21 -19 39 -42 39 -49 0 -8 5
-14 10 -14 l10 0 0 645 0 645 -790 0 -790 0 0 -15 c0 -8 -4 -15 -10 -15 -5 0
-10 7 -10 15 l0 15 -425 0 -425 0 -3 -197 -2 -198 -3 198 -2 197 -190 0 -190
0 0 -115z m1125 15 c19 0 37 -4 40 -10 l6 -10 -40 0 -41 0 0 -113 0 -113 13
-18 14 -19 31 5 c33 5 44 -5 16 -16 -29 -11 -51 -6 -70 15 l-19 21 -4 119 -3
119 -25 0 -24 0 6 10 c3 6 15 10 26 10 l19 0 0 33 c0 49 14 56 18 8 l3 -41 34
0z m265 34 l0 -34 35 0 c19 0 35 -4 35 -10 0 -5 -16 -10 -35 -10 l-36 0 3
-127 3 -128 38 0 c39 0 48 -9 21 -19 -27 -10 -43 -7 -64 16 l-20 22 0 118 0
118 -25 0 c-14 0 -25 5 -25 10 0 6 11 10 25 10 l25 0 0 41 0 40 10 -6 c6 -3
10 -22 10 -41z m525 -34 c19 0 37 -4 40 -10 l6 -10 -40 0 -41 0 0 -104 c0 -58
5 -117 10 -131 l10 -27 35 4 c36 4 47 -5 19 -16 -27 -10 -43 -7 -64 14 l-20
20 0 120 0 120 -25 0 c-14 0 -25 5 -25 10 0 6 11 10 25 10 l25 0 2 43 1 42 4
-42 4 -43 34 0z m-1365 -10 l40 13 32 -9 33 -10 22 -33 23 -34 0 -103 0 -104
-10 0 -10 0 0 109 0 108 -21 27 -20 26 -47 0 -46 0 -23 -22 -23 -21 0 -114 0
-113 -10 0 -10 0 0 146 0 146 15 -12 16 -13 39 13z m390 -5 c37 -19 39 -28 4
-15 -14 6 -45 10 -69 10 l-44 0 -15 -16 c-9 -8 -16 -26 -16 -39 l0 -23 23 -14
c12 -8 43 -22 69 -32 81 -30 106 -79 64 -121 -43 -43 -120 -45 -168 -5 l-23
20 37 -15 c21 -8 56 -15 79 -15 l42 0 19 17 c37 33 21 74 -37 99 -83 34 -103
46 -114 70 l-11 25 10 19 c26 48 94 64 150 35z m639 -246 l23 -19 38 0 c52 0
68 8 85 41 l15 28 0 106 0 106 10 -6 10 -6 0 -140 0 -139 -9 0 c-5 0 -11 6
-14 13 l-4 12 -37 -17 c-60 -29 -111 -18 -142 31 l-17 25 -5 98 c-3 53 -1 105
4 115 l8 18 6 -123 5 -124 24 -19z m647 245 c45 -22 76 -66 82 -119 l4 -43
-22 -40 -22 -40 -38 -21 c-68 -38 -136 -17 -187 58 l-23 34 0 34 c0 19 9 52
20 73 l20 40 38 19 c46 25 84 26 128 5z m-966 -134 l0 -140 -10 0 -10 0 0 140
0 140 10 0 10 0 0 -140z m-822 -462 l3 -158 95 0 95 0 -3 -32 -3 -33 -125 0
-125 0 -3 193 -2 193 32 -3 33 -3 3 -157z m-964 50 c9 -12 16 -37 16 -56 l0
-33 -19 11 c-11 5 -41 10 -66 10 -25 0 -55 -5 -66 -10 l-19 -11 0 44 c0 23 5
48 12 55 l12 12 57 0 58 0 15 -22z m304 10 c7 -7 12 -32 12 -55 l0 -44 -19 11
c-11 5 -41 10 -66 10 -25 0 -55 -5 -66 -10 l-19 -11 0 37 0 37 17 19 16 18 57
0 56 0 12 -12z m1116 -27 l31 -31 0 -113 0 -112 -27 -3 -28 -3 0 15 c0 20 -19
20 -44 1 -27 -21 -75 -19 -113 5 l-32 19 -7 26 c-10 39 3 71 37 95 l30 22 60
-1 59 -1 0 20 0 20 -26 16 -25 17 -47 -11 -47 -10 -7 11 c-20 31 40 59 111 53
l43 -4 32 -31z m606 9 l0 -30 -24 0 c-13 0 -34 -9 -47 -19 l-24 -19 -5 -99 -5
-98 -30 0 -30 0 -3 143 -3 142 36 0 c19 0 35 -4 35 -10 0 -15 32 -12 54 5 11
8 26 15 33 15 l13 0 0 -30z m238 10 l33 -20 15 -36 15 -35 -3 -92 -3 -92 -23
-3 c-13 -2 -29 2 -37 8 l-14 12 -36 -12 -36 -12 -34 6 -34 7 -21 26 c-11 14
-20 39 -20 55 l0 30 29 29 c30 30 45 33 119 29 l42 -2 0 21 0 21 -26 16 -25
17 -47 -11 -47 -10 -7 11 c-29 46 98 75 160 37z m-678 -83 l0 -93 16 -22 15
-22 39 0 39 0 15 22 16 22 0 93 0 93 30 0 31 0 -3 -142 -3 -143 -27 -3 -28 -3
0 15 c0 20 -19 20 -44 1 -11 -8 -35 -15 -53 -15 l-33 0 -32 29 -33 29 -3 116
-4 116 31 0 31 0 0 -93z m-1595 -313 l70 -15 60 7 c33 3 77 13 99 20 49 18 66
18 66 -1 l0 -14 -57 -18 -58 -18 -100 0 -100 0 -47 18 -48 19 0 15 0 15 23 -6
c12 -4 54 -14 92 -22z m1195 -64 l0 -30 -110 0 -110 0 0 -50 0 -49 98 -3 97
-3 0 -30 0 -30 -97 -3 -97 -3 -3 -77 -3 -77 -30 0 -30 0 -3 193 -2 192 145 0
145 0 0 -30z m1550 -30 l0 -40 30 0 30 0 0 -25 0 -25 -30 0 -31 0 3 -92 3 -93
23 0 c13 0 28 -8 33 -17 l9 -17 -19 -11 c-42 -22 -86 -7 -109 37 l-12 22 0 85
0 86 -20 0 -20 0 0 25 0 25 20 0 20 0 0 40 0 40 35 0 35 0 0 -40z m210 0 l0
-40 30 0 30 0 0 -25 0 -25 -30 0 -31 0 3 -92 3 -93 27 2 26 1 5 -19 5 -19 -18
-10 c-10 -6 -29 -10 -43 -10 l-24 0 -24 26 -24 26 -3 94 -4 94 -19 0 -19 0 0
25 0 25 20 0 20 0 0 40 0 40 35 0 35 0 0 -40z m-1540 -60 l0 -30 -25 0 -26 0
-24 -25 -25 -24 0 -96 0 -96 -32 3 -33 3 0 140 0 140 33 3 32 3 0 -15 c0 -18
25 -22 35 -5 7 10 41 27 58 28 4 1 7 -12 7 -29z m236 14 c39 -19 69 -63 79
-116 l7 -38 -106 0 -106 0 0 -17 c0 -9 7 -25 17 -35 l16 -18 41 0 c23 0 48 5
56 10 l15 9 17 -16 c33 -29 -15 -63 -89 -63 l-38 0 -33 20 c-18 11 -41 34 -52
52 l-20 33 0 46 0 46 23 34 c41 62 110 83 173 53z m304 0 c44 -18 44 -18 30
-45 l-11 -19 -20 10 c-11 6 -39 10 -62 8 l-42 -3 0 -20 0 -20 54 -17 c30 -10
65 -28 78 -40 l23 -21 0 -28 0 -28 -23 -27 -23 -27 -50 -4 -50 -5 -42 21 -42
21 12 20 c7 11 17 18 23 16 5 -3 26 -10 47 -17 l36 -12 27 7 26 7 -3 21 c-3
23 -9 26 -83 55 l-49 18 -15 26 -15 26 13 31 13 30 31 16 c41 20 67 20 117 0z
m293 -5 l26 -12 -16 -23 -15 -24 -18 10 c-10 6 -37 10 -60 10 l-41 0 3 -22 3
-21 65 -26 65 -26 13 -28 14 -28 -13 -30 c-23 -56 -100 -75 -179 -43 -40 16
-49 31 -30 50 l11 11 44 -15 45 -14 25 6 25 6 0 24 0 24 -65 22 -65 22 -15 28
-15 29 10 25 c5 14 24 35 42 47 l33 20 41 -5 c23 -3 53 -11 67 -17z m301 -18
l31 -31 3 -115 4 -115 -30 0 c-17 0 -32 5 -34 12 l-4 12 -41 -13 -41 -14 -36
7 -35 7 -21 26 c-11 14 -20 38 -20 53 l0 27 24 26 c30 32 63 41 127 34 l49 -6
0 10 c0 22 -22 50 -47 60 l-25 9 -40 -11 c-45 -12 -45 -12 -50 15 l-3 19 35
13 35 14 44 -4 43 -4 32 -31z" />
    <path d="M2954 1346 l-34 -34 0 -51 0 -52 15 -29 c51 -99 210 -73 236 37 l8
38 -10 37 -9 37 -31 25 -31 26 -55 0 -55 0 -34 -34z" />
    <path d="M1626 684 c-37 -37 -12 -74 50 -74 l43 0 15 22 c33 47 17 68 -54 68
l-39 0 -15 -16z" />
    <path d="M2498 689 c-21 -12 -24 -49 -6 -67 16 -16 80 -15 102 1 l18 13 -4 29
-3 30 -45 2 c-25 2 -53 -2 -62 -8z" />
    <path d="M1892 244 c-12 -8 -22 -22 -22 -30 l0 -14 70 0 70 0 0 14 c0 42 -74
61 -118 30z" />
    <path d="M2746 144 c-37 -36 -12 -74 49 -74 l42 0 16 18 c10 10 17 28 17 39
l0 21 -22 6 c-41 11 -86 6 -102 -10z" />
    <path d="M3500 240 c-38 -38 -38 -95 -1 -141 l19 -24 42 0 42 0 24 28 24 28 0
40 0 40 -25 24 -24 25 -41 0 -40 0 -20 -20z" />
  </g>
  <g transform="translate(0.000000,150.000000) scale(0.100000,-0.100000)" fill="#77d9bc" stroke="none">
    <path d="M820 1386 l0 -114 -19 -23 -19 -24 -391 -3 -391 -3 0 -605 0 -604
413 0 413 0 22 20 c11 11 26 37 31 57 l11 38 0 363 0 362 -35 0 -34 0 -3 -366
-3 -366 -24 -19 -23 -19 -349 0 -349 0 0 540 0 540 370 0 371 0 26 17 c14 9
32 32 39 50 l14 32 0 121 0 120 -35 0 -35 0 0 -114z" />
    <path d="M1250 1300 l0 -200 15 0 15 0 0 200 0 200 -15 0 -15 0 0 -200z" />
    <path d="M2110 1480 l0 -20 20 0 20 0 0 20 0 20 -20 0 -20 0 0 -20z" />
    <path d="M2747 1483 c-4 -3 -7 -24 -7 -46 l0 -39 -25 6 -25 6 0 -20 0 -20 25
0 25 0 0 -120 0 -120 20 -20 c21 -21 39 -24 78 -14 l22 6 0 20 0 19 -34 -6
-34 -7 -11 20 -11 21 0 100 0 101 40 0 40 0 0 15 0 15 -40 0 -40 0 0 45 c0 42
-7 54 -23 38z" />
    <path d="M1950 1440 l0 -40 -25 0 -25 0 0 -15 0 -15 25 0 25 0 0 -120 0 -120
20 -20 c29 -29 90 -25 90 6 l0 14 -28 0 c-15 0 -33 5 -40 12 l-12 12 0 108 0
108 35 0 35 0 0 15 0 15 -35 0 -35 0 0 40 0 40 -15 0 -15 0 0 -40z" />
    <path d="M2240 1440 l0 -40 -25 0 -25 0 0 -15 0 -15 25 0 25 0 0 -110 0 -109
12 -26 c13 -28 45 -40 83 -31 l25 6 0 15 0 15 -35 0 -35 0 -10 26 c-6 14 -10
68 -10 120 l0 94 40 0 40 0 0 15 0 15 -40 0 -40 0 0 40 0 40 -15 0 -15 0 0
-40z" />
    <path d="M1408 1394 l-28 -15 0 11 c0 5 -7 10 -15 10 l-15 0 0 -150 0 -150 18
0 17 0 -4 87 -3 86 12 39 11 40 34 14 c38 15 59 11 93 -19 l22 -20 0 -114 0
-113 18 0 17 0 -3 112 c-3 144 -6 155 -45 178 l-32 20 -35 0 c-19 -1 -47 -8
-62 -16z" />
    <path d="M1710 1403 c-8 -3 -23 -12 -32 -21 l-18 -15 0 -36 c0 -50 5 -55 93
-95 l77 -35 0 -20 c0 -11 -7 -27 -16 -35 l-15 -16 -42 0 -42 0 -33 20 -33 20
-6 -16 -6 -17 19 -14 c10 -7 35 -19 55 -25 l37 -11 37 7 c21 4 48 18 61 31
l24 24 0 24 c0 13 -9 36 -20 50 l-20 25 -48 16 c-63 21 -92 42 -92 67 l0 20
35 15 35 14 42 -15 c54 -19 58 -18 58 1 l0 15 -35 15 c-34 14 -87 17 -115 7z" />
    <path d="M2409 1403 c-5 -48 5 -241 13 -259 22 -47 103 -67 158 -39 l30 16 0
-11 c0 -5 9 -10 21 -10 l21 0 -6 16 c-3 9 -6 76 -6 150 l0 134 -14 0 -14 0 -4
-116 -3 -116 -24 -19 -23 -19 -33 0 -33 0 -23 19 -24 19 -5 118 -5 117 -12 5
c-7 2 -13 0 -14 -5z" />
    <path d="M2967 1388 l-37 -22 -21 -44 -21 -43 5 -46 c5 -49 27 -85 71 -117
l27 -21 54 0 54 0 28 21 c15 11 38 36 51 54 l22 33 0 44 0 44 -20 39 -20 40
-40 20 c-21 11 -56 20 -77 20 l-38 0 -38 -22z m143 -37 c14 -9 33 -34 44 -55
l19 -38 -12 -37 c-36 -121 -192 -124 -231 -5 l-12 34 12 34 c27 83 113 115
180 67z" />
    <path d="M2110 1250 l0 -150 20 0 20 0 0 150 0 150 -20 0 -20 0 0 -150z" />
    <path d="M1240 760 l0 -200 140 0 140 0 0 35 0 35 -100 0 -100 0 0 165 0 165
-40 0 -40 0 0 -200z" />
    <path d="M202 858 l-12 -12 0 -54 0 -54 23 8 c29 10 115 10 145 0 l22 -8 0 44
0 44 -16 22 -15 22 -68 0 -67 0 -12 -12z" />
    <path d="M507 852 l-17 -19 0 -47 0 -48 23 8 c29 10 115 10 145 0 l22 -8 0 54
0 54 -12 12 -12 12 -66 0 -67 0 -16 -18z" />
    <path d="M1615 857 c-44 -14 -53 -32 -32 -61 l14 -19 33 11 c47 17 67 15 90
-8 30 -30 25 -35 -36 -32 l-55 4 -30 -12 c-76 -32 -82 -137 -9 -175 37 -19 87
-19 123 -1 15 8 27 11 27 5 0 -5 18 -9 40 -9 l40 0 0 100 0 101 -14 32 c-7 18
-23 41 -35 51 l-21 19 -47 3 c-27 2 -66 -2 -88 -9z m121 -182 c8 -19 -12 -44
-44 -56 l-25 -10 -23 16 c-46 30 -20 64 49 65 l38 0 5 -15z" />
    <path d="M2340 863 c-8 -3 -23 -12 -32 -21 l-18 -15 0 16 0 17 -40 0 -40 0 0
-150 0 -150 40 0 40 0 0 88 0 88 15 21 c8 12 31 27 50 33 l35 12 0 34 0 34
-17 -1 c-10 0 -25 -3 -33 -6z" />
    <path d="M2480 856 l-35 -13 -3 -19 c-1 -10 2 -25 7 -33 l9 -14 45 12 45 13
21 -11 c11 -6 25 -19 30 -29 l9 -17 -75 0 -75 0 -24 -28 -24 -28 0 -39 0 -39
23 -26 23 -27 46 -5 46 -5 31 15 c17 9 31 11 31 6 0 -5 16 -9 35 -9 l35 0 0
118 0 118 -16 23 c-33 46 -113 63 -184 37z m119 -175 l13 -8 -12 -22 c-6 -12
-22 -26 -36 -31 l-24 -10 -25 10 -25 10 0 18 c0 37 69 58 109 33z" />
    <path d="M1870 753 l0 -108 18 -35 c28 -57 95 -77 155 -46 15 8 27 11 27 5 0
-5 18 -9 40 -9 l40 0 0 150 0 150 -40 0 -40 0 0 -95 0 -96 -25 -24 c-29 -30
-49 -31 -75 -5 l-20 20 0 100 0 100 -40 0 -40 0 0 -107z" />
    <path d="M220 462 l0 -30 48 -19 47 -18 110 0 110 0 58 18 57 18 0 24 c0 35
-11 37 -76 14 l-59 -21 -75 -1 -75 -1 -57 17 c-32 10 -64 20 -73 23 l-15 6 0
-30z" />
    <path d="M1240 220 l0 -200 45 0 45 0 0 80 0 80 95 0 95 0 0 35 0 35 -95 0
-95 0 0 45 0 45 105 0 105 0 0 40 0 40 -150 0 -150 0 0 -200z" />
    <path d="M3020 360 l0 -40 -25 0 -25 0 0 -35 0 -35 25 0 25 0 0 -99 0 -100 26
-20 27 -21 31 0 c18 0 40 6 50 13 l18 14 -6 21 -7 22 -23 0 c-12 0 -27 5 -34
12 l-12 12 0 73 0 73 35 0 35 0 0 35 0 35 -35 0 -35 0 0 40 0 40 -35 0 -35 0
0 -40z" />
    <path d="M3230 360 l0 -40 -25 0 -25 0 0 -35 0 -35 25 0 25 0 0 -99 0 -100 26
-20 27 -21 31 0 c18 0 40 6 50 13 l18 14 -6 21 -7 22 -24 0 -24 0 -11 19 c-5
11 -10 49 -10 85 l0 66 35 0 35 0 0 35 0 35 -35 0 -35 0 0 40 0 40 -35 0 -35
0 0 -40z" />
    <path d="M1725 323 c-11 -3 -28 -12 -37 -21 l-18 -15 0 16 0 17 -40 0 -40 0 0
-150 0 -150 40 0 40 0 0 88 0 88 15 21 c8 12 31 27 50 33 l35 12 0 34 0 34
-12 -1 c-7 -1 -22 -4 -33 -6z" />
    <path d="M1895 323 c-66 -18 -105 -79 -105 -161 l0 -49 23 -34 c43 -65 125
-86 207 -53 l40 16 0 18 c0 9 -9 25 -20 35 l-19 18 -35 -17 c-45 -21 -106 -1
-106 35 l0 9 106 0 107 0 -7 42 c-18 110 -95 168 -191 141z m98 -95 l22 -23
-64 -3 c-73 -3 -81 0 -56 28 l18 20 29 0 28 0 23 -22z" />
    <path d="M2193 323 c-12 -2 -34 -18 -48 -34 l-25 -31 0 -27 c0 -14 7 -36 15
-48 l15 -21 65 -22 65 -22 0 -14 c0 -7 -12 -17 -26 -20 l-26 -7 -34 17 c-56
26 -74 18 -74 -34 l0 -18 45 -17 45 -18 52 5 52 5 23 27 23 27 0 38 0 38 -22
20 c-13 11 -47 28 -75 38 -61 19 -71 30 -44 45 l21 10 36 -15 c48 -20 47 -20
67 15 l18 29 -31 16 c-32 17 -102 26 -137 18z" />
    <path d="M2460 319 c-13 -6 -33 -17 -42 -26 l-18 -16 0 -44 0 -43 20 -17 c11
-10 46 -26 77 -38 58 -20 67 -32 39 -50 l-16 -10 -51 18 -50 18 -15 -12 c-8
-6 -14 -22 -14 -34 l0 -23 45 -17 45 -18 50 5 51 5 24 23 25 23 0 44 0 43 -20
20 c-10 10 -44 26 -75 35 l-55 16 0 14 c0 16 30 24 55 14 11 -4 32 -8 47 -8
l28 -1 6 24 c12 50 -84 84 -156 55z" />
    <path d="M2735 316 l-40 -12 -3 -14 c-1 -9 3 -24 11 -34 l13 -18 42 13 43 12
26 -19 c15 -11 28 -25 30 -30 l4 -11 -56 5 -55 4 -30 -12 c-76 -31 -81 -138
-8 -176 l31 -16 46 6 c25 3 70 6 100 5 l53 0 -3 119 -4 120 -20 22 c-41 47
-104 59 -180 36z m114 -175 l14 -9 -6 -15 c-3 -9 -18 -24 -33 -33 l-26 -18
-26 15 c-32 18 -37 33 -17 53 l16 16 32 0 c18 0 38 -4 46 -9z" />
    <path d="M3491 308 c-25 -13 -54 -36 -65 -51 l-21 -28 0 -59 0 -59 21 -27 c11
-15 32 -37 46 -47 l27 -20 48 -4 49 -5 41 21 41 20 21 34 21 34 0 50 0 50 -22
33 c-33 47 -66 69 -118 76 l-45 5 -44 -23z m129 -86 c11 -13 20 -38 20 -54 l0
-30 -29 -29 c-46 -45 -109 -26 -125 37 l-7 27 12 30 12 29 30 13 c38 16 62 9
87 -23z" />
  </g>
  <g transform="translate(0.000000,150.000000) scale(0.100000,-0.100000)" fill="#7edbbf" stroke="none">
    <path d="M1250 1300 l0 -200 15 0 15 0 0 200 0 200 -15 0 -15 0 0 -200z m17
-97 c-1 -54 -3 -10 -3 97 0 107 2 151 3 98 2 -54 2 -142 0 -195z" />
    <path d="M2104 1489 c-3 -6 0 -18 9 -26 18 -18 37 -9 36 15 l-1 17 -5 -12 c-2
-7 -9 -13 -15 -13 -6 0 -8 7 -4 15 6 17 -9 21 -20 4z" />
    <path d="M1947 1483 c-4 -3 -7 -21 -7 -39 l0 -33 -22 -3 -23 -3 -3 -17 -3 -18
16 0 16 0 -6 10 -6 10 25 0 26 0 0 41 0 40 10 -6 10 -6 0 15 c0 16 -21 22 -33
9z" />
    <path d="M2240 1475 l0 -16 10 6 10 6 0 -39 0 -40 45 -4 45 -3 0 12 0 13 -34
0 -35 0 -3 37 -3 38 -17 3 -18 3 0 -16z" />
    <path d="M2740 1450 l0 -40 -23 0 -24 0 0 -13 0 -13 29 4 28 4 0 37 c0 20 5
42 12 49 l12 12 -17 0 -17 0 0 -40z" />
    <path d="M2762 1434 l-2 -42 45 -4 45 -3 -3 10 c-2 5 -20 11 -40 13 l-36 3 -4
32 -4 32 -1 -41z" />
    <path d="M1490 1406 c0 -2 16 -13 35 -25 l35 -21 6 -30 c4 -16 10 -30 15 -30
28 0 -13 75 -51 95 -30 15 -40 18 -40 11z" />
    <path d="M1679 1381 c-38 -38 -37 -98 1 -89 l14 3 1 -18 0 -19 59 -24 c32 -13
65 -32 72 -41 l13 -18 1 18 0 18 -72 34 c-84 39 -86 44 -8 15 l55 -21 28 -31
c31 -37 37 -24 7 15 l-20 26 -58 21 c-31 12 -62 26 -69 32 -7 5 -17 7 -23 3
l-10 -6 0 29 0 29 18 16 c10 10 24 17 30 17 6 0 14 5 17 10 l6 10 -16 0 c-9 0
-30 -13 -46 -29z" />
    <path d="M1785 1400 c3 -5 12 -10 19 -10 7 0 21 -7 32 -16 10 -8 13 -13 7 -9
l-13 6 0 -11 c0 -14 32 -9 36 5 2 6 -12 18 -32 28 -39 19 -58 22 -49 7z" />
    <path d="M1970 1401 c0 -5 18 -11 40 -13 l40 -4 0 13 0 13 -40 0 c-22 0 -40
-4 -40 -9z" />
    <path d="M2190 1397 l0 -14 30 5 c17 2 30 8 30 13 0 5 -13 9 -30 9 l-30 0 0
-13z" />
    <path d="M2407 1403 c-11 -10 -8 -196 3 -213 l10 -15 -2 112 -3 111 13 -10 12
-10 0 16 c0 16 -21 22 -33 9z" />
    <path d="M2610 1395 l0 -16 11 6 10 7 -3 -144 -3 -145 13 0 13 0 -3 151 -3
151 -17 3 -18 3 0 -16z" />
    <path d="M2980 1394 c-14 -7 -25 -21 -25 -31 l0 -18 -18 0 -17 0 -15 -29 c-18
-34 -18 -36 -5 -36 6 0 10 6 10 13 0 7 7 22 16 33 l15 19 -10 -22 c-18 -37
-12 -50 8 -17 26 43 59 64 98 64 18 0 33 5 33 10 0 14 -35 12 -78 -5 l-37 -15
17 13 c9 6 25 17 35 24 25 16 4 14 -27 -3z" />
    <path d="M3070 1405 c0 -2 12 -11 28 -20 l27 -16 -25 7 -25 6 37 -32 38 -31 8
-32 c11 -41 -1 -93 -27 -121 -23 -25 -28 -43 -8 -30 7 5 4 1 -6 -8 -11 -10
-25 -18 -33 -18 -8 0 -14 -4 -14 -10 0 -13 6 -13 33 2 40 21 106 103 93 115
-3 3 -12 -9 -20 -25 -9 -17 -20 -33 -25 -36 -5 -3 0 11 11 32 l19 37 -4 35
c-3 19 -8 44 -12 55 -3 11 1 7 10 -8 20 -35 29 -30 15 7 l-10 28 -13 -5 c-17
-6 -47 22 -40 39 l5 14 -27 10 c-30 11 -35 12 -35 5z" />
    <path d="M1431 1379 c-13 -5 -22 -11 -20 -13 8 -7 79 7 79 15 0 11 -28 11 -59
-2z" />
    <path d="M1713 1375 l-33 -14 0 -17 0 -18 20 22 21 22 29 0 c17 0 30 5 30 10
0 14 -29 12 -67 -5z" />
    <path d="M1527 1345 c15 -19 30 -30 32 -24 3 11 -37 59 -51 59 -5 0 4 -16 19
-35z" />
    <path d="M1940 1268 c6 -112 19 -168 40 -168 l11 0 -15 22 -16 22 0 118 0 118
-12 0 -13 0 5 -112z" />
    <path d="M2261 1256 l4 -123 -13 16 -13 16 3 -20 3 -20 28 -2 29 -2 -12 14
-11 14 3 115 3 116 -14 0 -13 0 3 -124z" />
    <path d="M2740 1267 l5 -112 3 104 c1 57 -1 108 -5 112 -4 5 -6 -42 -3 -104z" />
    <path d="M2760 1265 l0 -115 20 -20 c24 -24 30 -25 56 -5 l19 15 -32 -6 -33
-6 -10 28 -11 29 3 97 c2 54 0 98 -4 98 -5 0 -8 -52 -8 -115z" />
    <path d="M1370 1361 c0 -6 4 -11 9 -11 l10 0 -11 -31 c-6 -16 -8 -33 -4 -36
10 -10 14 0 18 41 l3 39 -12 4 c-7 3 -13 0 -13 -6z" />
    <path d="M2910 1237 c0 -7 9 -31 20 -52 l19 -40 -19 24 c-11 13 -20 29 -20 37
0 8 -4 14 -10 14 -36 0 53 -110 101 -125 36 -12 33 3 -4 18 -19 8 -38 20 -42
27 -4 7 4 4 18 -5 15 -9 32 -15 39 -13 l13 5 -32 17 c-32 16 -63 61 -63 91 0
8 -4 15 -10 15 -5 0 -10 -6 -10 -13z" />
    <path d="M1846 1145 c-9 -13 -27 -27 -41 -31 -20 -5 -37 -24 -22 -24 16 0 69
36 78 52 16 29 4 33 -15 3z" />
    <path d="M2413 1158 c2 -7 12 -13 23 -13 l19 -1 -3 -14 c-2 -8 5 -20 14 -27
21 -16 34 -17 34 -3 0 6 -6 10 -14 10 -8 0 -18 5 -22 11 l-7 11 24 -7 24 -6
-25 20 c-14 11 -31 19 -37 16 -7 -2 -13 0 -13 5 0 6 -5 10 -11 10 -6 0 -9 -6
-6 -12z" />
    <path d="M2570 1140 c-27 -21 -21 -27 11 -10 10 6 19 8 19 6 0 -3 -14 -13 -31
-21 -17 -9 -29 -18 -26 -21 2 -2 17 2 33 11 l29 15 1 20 c2 25 -4 25 -36 0z" />
    <path d="M1642 1137 c5 -16 75 -50 91 -44 6 2 -8 14 -33 26 -25 11 -36 18 -25
15 11 -3 29 -9 40 -11 l20 -6 -11 13 c-7 6 -28 13 -48 15 l-37 4 3 -12z" />
    <path d="M2022 1133 c-12 -2 -20 -8 -17 -13 3 -4 15 -6 28 -3 l22 5 -20 -16
-20 -17 20 3 20 3 3 23 c2 12 0 21 -5 21 -4 -1 -18 -4 -31 -6z" />
    <path d="M1310 785 l0 -165 10 0 10 0 0 165 0 165 -10 0 -10 0 0 -165z" />
    <path d="M1610 857 l-35 -12 -3 -20 c-1 -11 2 -26 7 -34 l9 -14 45 12 c25 6
53 8 61 5 l16 -6 0 11 0 11 -29 0 c-16 0 -41 -4 -55 -10 l-26 -9 -10 19 -11
20 26 10 c15 6 31 10 36 10 5 0 9 5 9 10 0 6 -1 10 -2 9 -2 0 -19 -5 -38 -12z" />
    <path d="M1714 861 c4 -6 13 -11 21 -11 16 0 65 -56 65 -76 0 -8 5 -14 11 -14
l10 0 -7 23 c-8 29 -52 72 -83 82 l-24 7 7 -11z" />
    <path d="M2475 855 c-22 -8 -41 -15 -42 -15 -8 0 -1 -18 12 -36 l15 -19 -3 24
-2 24 32 11 c32 11 54 26 37 26 -5 -1 -27 -7 -49 -15z" />
    <path d="M2070 767 l0 -93 -16 -22 -15 -22 -25 0 c-13 0 -24 -4 -24 -10 0 -17
36 -11 61 9 l24 19 5 106 c3 58 2 106 -2 106 -5 0 -8 -42 -8 -93z" />
    <path d="M2202 708 l3 -151 10 -4 10 -3 0 155 0 155 -13 0 -13 0 3 -152z" />
    <path d="M2643 820 l28 -33 -3 -113 -3 -114 13 0 14 0 -4 114 -3 115 -21 27
c-11 15 -27 30 -34 32 -8 3 -2 -10 13 -28z" />
    <path d="M2333 795 c-31 -13 -53 -41 -53 -67 0 -7 9 2 20 20 l20 33 30 6 c17
3 30 9 30 14 0 12 -9 11 -47 -6z" />
    <path d="M2491 799 c-36 -14 -20 -20 23 -8 l37 10 25 -16 c25 -16 32 -35 13
-35 -5 0 -7 -4 -4 -10 10 -16 35 -12 35 5 0 9 -11 27 -25 40 l-24 25 -28 -1
c-15 0 -39 -5 -52 -10z" />
    <path d="M2486 750 c-31 -10 -66 -38 -66 -53 0 -6 11 0 25 13 l24 23 52 5 51
5 -14 8 c-16 10 -34 10 -72 -1z" />
    <path d="M1571 719 c-17 -17 -31 -35 -31 -41 0 -5 13 4 29 21 16 17 34 31 40
31 6 0 11 5 11 10 0 18 -18 10 -49 -21z" />
    <path d="M1628 689 l-18 -10 0 -24 0 -24 22 -15 c24 -17 38 -20 38 -8 0 4 -10
12 -22 17 -31 14 -33 30 -7 54 24 22 16 28 -13 10z" />
    <path d="M2583 689 c41 -24 9 -69 -49 -69 l-28 0 11 -11 11 -11 31 7 c50 11
82 75 45 89 -25 10 -41 6 -21 -5z" />
    <path d="M1719 639 l-27 -29 13 0 c15 0 48 36 44 48 -2 6 -16 -3 -30 -19z" />
    <path d="M1890 602 c0 -12 47 -52 61 -52 5 0 9 5 9 10 0 6 -5 10 -12 10 -6 0
-22 10 -35 22 -13 12 -23 17 -23 10z" />
    <path d="M2420 603 c0 -14 31 -39 59 -48 l24 -7 -7 11 c-4 6 -12 11 -18 11 -7
0 -22 10 -35 22 -13 12 -23 17 -23 11z" />
    <path d="M2050 585 c-7 -8 -19 -15 -26 -15 -8 0 -14 -4 -14 -10 0 -14 12 -12
38 6 l22 15 0 -15 c0 -9 5 -16 11 -16 l11 0 -6 16 c-3 9 -6 20 -6 25 0 14 -16
11 -30 -6z" />
    <path d="M2590 585 c-7 -8 -18 -15 -26 -15 -7 0 -16 -5 -20 -11 l-7 -11 24 8
c13 4 34 7 46 6 l21 -2 -5 20 c-6 24 -16 25 -33 5z" />
    <path d="M1528 375 l-4 -35 13 0 13 0 0 35 c0 19 -4 35 -9 35 -5 0 -11 -16
-13 -35z" />
    <path d="M3218 355 l-3 -45 11 0 12 0 4 45 3 45 -11 0 -12 0 -4 -45z" />
    <path d="M1720 322 c-31 -14 -64 -42 -57 -48 4 -4 17 2 30 14 13 12 31 22 40
22 9 0 17 5 17 10 0 11 -8 12 -30 2z" />
    <path d="M1872 313 c-45 -22 -101 -103 -72 -103 6 0 10 7 10 16 0 22 67 84 90
84 10 0 22 5 25 10 9 15 -16 12 -53 -7z" />
    <path d="M2190 323 c-20 -7 -70 -61 -70 -76 0 -6 14 5 31 26 l30 37 20 0 c10
0 19 5 19 10 0 11 -7 11 -30 3z" />
    <path d="M2530 322 c0 -5 16 -13 35 -16 39 -8 48 -17 39 -41 l-7 -17 -31 6
-31 6 19 -15 c28 -21 41 -19 61 12 l18 27 -23 18 c-12 10 -28 18 -35 18 -7 0
-20 3 -29 6 -9 3 -16 2 -16 -4z" />
    <path d="M2731 316 c-40 -14 -45 -24 -32 -59 l10 -25 21 5 c11 3 23 10 27 16
l6 10 -22 -6 -21 -5 -11 19 -10 19 26 10 c15 6 32 10 40 10 8 0 17 5 20 10 8
13 -11 12 -54 -4z" />
    <path d="M2824 321 c4 -6 13 -11 21 -11 22 0 75 -50 75 -71 0 -10 5 -19 11
-19 l10 0 -6 23 c-10 32 -55 75 -89 83 l-29 7 7 -12z" />
    <path d="M3495 314 c-53 -28 -110 -103 -91 -121 3 -3 11 10 19 28 17 41 41 63
90 84 20 8 37 17 37 20 0 10 -25 5 -55 -11z" />
    <path d="M3580 320 c0 -5 8 -10 18 -10 10 0 28 -7 40 -16 l22 -15 0 11 c0 6
-16 18 -35 26 -41 17 -45 17 -45 4z" />
    <path d="M1587 313 c-4 -3 -7 -71 -7 -150 l0 -143 13 0 12 0 0 150 c0 142 -2
159 -18 143z" />
    <path d="M2417 292 c-9 -10 -20 -32 -23 -49 l-6 -31 11 -6 11 -7 0 32 0 33 22
23 c12 13 17 23 11 23 -5 0 -17 -8 -26 -18z" />
    <path d="M2328 261 l-14 -20 -14 10 c-24 14 -37 10 -16 -6 27 -21 43 -19 56 6
15 28 6 36 -12 10z" />
    <path d="M2056 243 c7 -16 14 -34 14 -40 0 -7 4 -13 9 -13 l10 0 -9 30 c-10
36 -19 50 -30 50 -5 0 -2 -12 6 -27z" />
    <path d="M2205 256 l-18 -13 6 -16 c3 -8 30 -23 59 -32 63 -21 95 -48 101 -84
l4 -26 1 30 2 30 -25 23 c-13 13 -48 31 -77 40 -58 19 -69 35 -25 40 15 2 27
8 27 13 0 14 -33 11 -55 -5z" />
    <path d="M2770 261 c0 -6 8 -9 18 -9 9 1 28 -2 42 -6 l25 -7 -19 15 c-22 17
-66 22 -66 7z" />
    <path d="M3533 260 c-34 -14 -28 -19 17 -13 l40 6 30 -33 c34 -37 42 -24 8 14
-26 29 -63 39 -95 26z" />
    <path d="M3687 244 c9 -15 20 -45 24 -68 l6 -41 2 38 c1 40 -22 97 -39 97 -6
0 -3 -12 7 -26z" />
    <path d="M1320 251 l0 -10 103 -3 c113 -3 112 -4 102 11 l-6 11 -100 0 -99 0
0 -9z" />
    <path d="M1685 235 c-14 -13 -25 -32 -25 -42 l1 -18 10 20 c6 11 23 30 38 42
l26 23 -13 0 c-7 0 -24 -11 -37 -25z" />
    <path d="M1881 234 c-23 -29 -27 -44 -11 -44 6 0 10 6 10 14 0 8 12 24 28 35
l27 20 -17 1 c-9 0 -26 -12 -37 -26z" />
    <path d="M3222 161 l3 -99 28 -27 c15 -16 30 -25 34 -22 3 4 -6 16 -20 28
l-27 20 0 100 0 99 -11 0 -11 0 4 -99z" />
    <path d="M2120 217 c-1 -34 57 -73 135 -92 l30 -6 -10 9 c-5 5 -33 17 -62 26
l-52 17 -20 27 c-11 15 -21 23 -21 19z" />
    <path d="M2490 213 c0 -9 102 -44 109 -37 2 2 -11 10 -30 18 -54 22 -79 28
-79 19z" />
    <path d="M2752 209 c-19 -4 -39 -12 -45 -19 l-12 -13 20 8 c11 4 40 11 65 14
l45 6 -20 6 c-11 3 -35 2 -53 -2z" />
    <path d="M1418 193 l-98 -4 0 -9 0 -10 100 0 100 0 0 15 c0 8 -1 14 -2 13 -2
-1 -47 -4 -100 -5z" />
    <path d="M2431 171 c4 -10 115 -60 137 -61 20 -1 -20 22 -61 36 -28 9 -58 22
-66 28 l-14 11 4 -14z" />
    <path d="M1973 153 c-62 -2 -113 -7 -113 -12 0 -14 41 -61 53 -61 6 0 1 9 -11
20 -12 12 -22 25 -22 30 l0 10 105 0 105 0 0 10 c0 6 -1 9 -2 8 -2 -1 -54 -4
-115 -5z" />
    <path d="M2747 142 c-23 -25 -21 -48 5 -66 25 -18 58 -21 58 -6 0 6 -11 10
-24 10 -48 0 -57 47 -13 68 l22 11 -16 0 c-9 1 -23 -7 -32 -17z" />
    <path d="M3628 130 c-18 -32 -58 -53 -83 -44 l-15 6 0 -11 0 -11 31 0 31 0 29
29 c16 16 29 37 29 45 0 22 -2 20 -22 -14z" />
    <path d="M2620 107 l0 -34 -23 -21 c-13 -12 -29 -22 -35 -22 -7 0 -12 -4 -12
-10 0 -19 21 -10 55 25 l35 34 0 25 c0 14 -4 28 -10 31 l-10 6 0 -34z" />
    <path d="M3400 135 c0 -13 31 -65 39 -65 10 0 -21 69 -31 70 -5 0 -8 -2 -8 -5z" />
    <path d="M1791 125 c-2 -21 40 -76 71 -95 37 -22 48 -25 48 -10 0 6 -7 10 -16
10 -16 0 -70 50 -91 85 -6 11 -12 16 -12 10z" />
    <path d="M2401 93 c-12 -14 -21 -29 -21 -33 0 -11 90 -54 97 -47 3 4 -13 14
-36 23 -41 16 -50 31 -30 51 l11 11 34 -14 c18 -8 46 -14 62 -14 l30 0 13 17
14 17 -20 -9 c-30 -13 -83 -8 -110 9 l-24 16 -20 -27z" />
    <path d="M3290 114 c0 -3 5 -14 10 -25 l11 -19 23 0 c13 0 26 -6 29 -14 l6
-14 -22 -16 c-12 -8 -17 -15 -11 -15 5 -1 19 5 29 13 l19 14 -14 27 -14 26
-19 -5 -19 -5 -5 20 c-5 17 -23 28 -23 13z" />
    <path d="M1973 97 c-18 -6 -33 -15 -33 -19 0 -12 22 -9 52 6 l27 14 17 -20 18
-19 -14 -10 c-8 -5 -25 -12 -37 -15 -13 -3 -23 -10 -23 -16 l0 -9 23 7 c64 20
77 41 44 72 -25 24 -27 24 -74 9z" />
    <path d="M2150 105 c0 -23 112 -46 125 -25 l7 11 -25 -6 -24 -6 -38 15 c-41
17 -45 18 -45 11z" />
    <path d="M3010 86 c0 -19 57 -82 66 -73 4 4 -5 16 -19 28 -15 11 -27 29 -27
40 0 10 -4 19 -10 19 -5 0 -10 -6 -10 -14z" />
    <path d="M3090 85 c7 -8 23 -15 35 -15 l23 0 6 -16 c4 -9 9 -14 12 -11 3 3 0
15 -6 27 l-12 22 -19 -5 c-10 -3 -22 -1 -25 4 -3 5 -10 9 -16 9 l-10 0 12 -15z" />
    <path d="M2660 87 c0 -29 71 -89 87 -74 2 3 -6 11 -19 17 -12 7 -33 24 -45 38
-13 15 -23 23 -23 19z" />
    <path d="M2325 50 c-10 -11 -24 -20 -31 -20 -7 0 -16 -5 -20 -11 l-7 -11 24 7
c27 8 66 42 58 50 -3 3 -14 -4 -24 -15z" />
    <path d="M3460 50 c0 -12 60 -43 68 -36 3 3 3 7 1 9 -35 21 -69 34 -69 27z" />
  </g>
  <g transform="translate(0.000000,150.000000) scale(0.100000,-0.100000)" fill="#81dcc1" stroke="none">
    <path d="M2428 1338 c4 -125 9 -137 10 -30 1 56 -1 102 -5 102 -5 0 -7 -33 -5
-72z" />
    <path d="M2015 1383 c-48 -7 -48 -18 0 -15 25 2 45 8 45 13 0 5 -3 8 -7 8 -5
-1 -21 -4 -38 -6z" />
    <path d="M1680 1319 c0 -12 17 -29 48 -47 l22 -12 0 10 c0 5 -4 10 -9 10 -4 0
-20 11 -35 25 -14 13 -26 19 -26 14z" />
    <path d="M1375 1288 c-2 -7 -6 -52 -7 -99 l-3 -86 13 0 12 0 0 99 c0 91 -4
116 -15 86z" />
    <path d="M1938 798 c5 -113 9 -125 10 -30 1 50 -1 92 -5 92 -5 0 -7 -28 -5
-62z" />
    <path d="M1700 801 c0 -5 7 -14 15 -21 8 -7 15 -20 15 -28 l0 -16 11 11 11 11
-11 20 c-11 21 -41 37 -41 23z" />
    <path d="M1946 645 c4 -9 15 -20 26 -26 l20 -11 11 11 11 11 -16 0 c-8 0 -21
7 -28 15 -16 19 -31 19 -24 0z" />
    <path d="M2481 636 l4 -20 27 -7 28 -7 6 9 c3 5 -3 9 -12 9 -10 0 -26 8 -37
18 l-19 17 3 -19z" />
    <path d="M1315 630 l-6 -10 95 0 95 0 6 10 6 10 -95 0 -95 0 -6 -10z" />
    <path d="M1743 563 l0 -13 34 0 34 0 -5 9 c-3 5 -19 11 -34 13 l-29 4 0 -13z" />
    <path d="M1255 560 l-6 -10 131 0 131 0 -6 10 -6 10 -119 0 -119 0 -6 -10z" />
    <path d="M2075 560 l-6 -10 36 0 36 0 -6 10 c-3 6 -17 10 -30 10 -13 0 -27 -4
-30 -10z" />
    <path d="M2215 560 l-6 -10 36 0 36 0 -6 10 c-3 6 -17 10 -30 10 -13 0 -27 -4
-30 -10z" />
    <path d="M2610 560 c0 -5 16 -10 35 -10 19 0 35 5 35 10 0 6 -16 10 -35 10
-19 0 -35 -4 -35 -10z" />
    <path d="M3010 392 l0 -10 38 5 38 5 -4 -35 -4 -36 28 -6 c16 -4 35 -8 42 -11
6 -2 12 1 12 6 0 6 -13 10 -29 10 l-30 0 -3 38 -3 37 -42 3 -43 3 0 -9z" />
    <path d="M3220 392 c0 -4 16 -6 35 -4 l35 4 0 -36 0 -36 28 -6 c15 -3 33 -7
40 -10 6 -2 12 1 12 6 0 6 -13 10 -30 10 l-30 0 0 40 0 40 -45 0 c-25 0 -45
-4 -45 -8z" />
    <path d="M1433 353 c-62 -2 -113 -7 -113 -11 0 -4 52 -6 115 -4 l115 3 0 10
c0 5 -1 8 -2 7 -2 -1 -54 -4 -115 -5z" />
    <path d="M3087 253 c-4 -3 -7 -42 -7 -85 l0 -78 10 0 10 0 0 85 c0 85 -1 91
-13 78z" />
    <path d="M3297 253 c-4 -3 -7 -37 -7 -74 l0 -68 10 -6 10 -6 0 80 c0 81 -1 87
-13 74z" />
    <path d="M1517 243 c-11 -10 -8 -63 3 -63 6 0 10 16 10 35 0 36 -2 40 -13 28z" />
    <path d="M1994 225 l5 -15 -64 0 -65 0 0 -10 0 -10 69 0 69 0 5 13 c6 16 -3
37 -15 37 -6 0 -8 -7 -4 -15z" />
    <path d="M2847 44 c-12 -12 22 -34 53 -34 l31 0 -6 10 c-3 6 -16 10 -29 10
-12 0 -27 5 -32 10 -6 6 -13 7 -17 4z" />
    <path d="M1250 20 c0 -5 16 -10 35 -10 19 0 35 5 35 10 0 6 -16 10 -35 10 -19
0 -35 -4 -35 -10z" />
    <path d="M1590 20 c0 -5 16 -10 36 -10 l35 0 -6 10 c-8 13 -65 13 -65 0z" />
  </g>
  <g transform="translate(0.000000,150.000000) scale(0.100000,-0.100000)" fill="#f5fbfa" stroke="none">
    <path d="M1970 1405 l0 -10 44 0 c54 -1 51 11 -4 17 l-40 4 0 -11z" />
    <path d="M1350 1399 c0 -5 4 -8 9 -4 6 3 14 -2 19 -11 l9 -17 12 8 12 7 -18
14 c-22 16 -43 18 -43 3z" />
    <path d="M2404 1397 c-3 -8 -3 -56 -1 -108 l3 -94 2 102 2 102 18 4 17 5 -18
1 c-10 0 -20 -5 -23 -12z" />
    <path d="M2610 1401 c0 -6 6 -10 13 -8 l12 2 6 -150 5 -150 0 155 -1 155 -17
3 c-10 2 -18 -1 -18 -7z" />
    <path d="M3100 1389 c0 -5 4 -8 9 -5 12 8 73 -53 65 -65 -3 -5 0 -9 5 -9 20 0
11 19 -24 55 -36 35 -55 44 -55 24z" />
    <path d="M1630 1141 c0 -5 19 -19 43 -30 50 -24 70 -27 42 -7 -11 8 -23 12
-27 10 -5 -3 -8 0 -8 6 0 6 -5 8 -10 5 -6 -3 -13 1 -16 9 -7 17 -24 22 -24 7z" />
    <path d="M2050 1120 c0 -11 -5 -20 -12 -20 -6 0 -9 -3 -6 -6 4 -3 16 -1 27 5
l20 11 -5 15 c-9 22 -24 18 -24 -5z" />
    <path d="M1314 947 c3 -10 6 -86 6 -168 0 -82 3 -149 8 -149 4 0 6 71 4 157
l-3 158 -11 10 -11 10 7 -18z" />
    <path d="M2205 708 l0 -153 34 -3 c18 -2 37 0 42 5 l8 8 -39 -3 -39 -4 -4 151
-3 151 1 -152z" />
    <path d="M1715 780 c9 -10 14 -23 11 -28 -3 -6 1 -12 9 -15 l14 -6 -8 22 c-5
12 -8 26 -7 31 0 5 -7 10 -17 12 l-19 2 17 -18z" />
    <path d="M1247 558 c2 -5 62 -8 133 -8 71 0 131 3 133 8 3 4 -57 7 -133 7 -76
0 -136 -3 -133 -7z" />
    <path d="M2607 558 c2 -5 19 -8 38 -8 19 0 36 3 38 8 3 4 -14 7 -38 7 -24 0
-41 -3 -38 -7z" />
    <path d="M1587 313 c-10 -9 -9 -291 1 -296 4 -3 7 64 7 149 0 85 0 154 -1 154
0 0 -4 -3 -7 -7z" />
  </g>
  <g transform="translate(0.000000,150.000000) scale(0.100000,-0.100000)" fill="#7adabe" stroke="none">
    <path d="M1377 1388 c8 -13 9 -19 12 -39 l1 -11 14 11 15 12 -20 20 c-22 22
-34 25 -22 7z" />
    <path d="M1577 1313 c-4 -3 -7 -51 -7 -105 l0 -99 -10 6 c-5 3 -10 2 -10 -4 0
-5 9 -9 20 -8 l20 1 0 108 c0 108 -1 114 -13 101z" />
    <path d="M2896 1304 c-8 -21 -8 -39 1 -31 3 4 12 2 20 -4 l13 -11 0 16 c0 9
-3 15 -7 15 -20 -3 -24 2 -13 16 l12 15 -10 0 c-5 0 -13 -7 -16 -16z" />
    <path d="M1672 1302 l-12 -8 19 -18 19 -17 6 16 c11 29 -6 43 -32 27z" />
    <path d="M2809 1117 c6 -8 8 -17 4 -20 -12 -13 23 -7 42 6 l18 14 -10 6 c-6 4
-14 0 -17 -9 -3 -8 -10 -12 -16 -9 -6 4 -8 11 -5 16 4 5 -1 9 -11 9 l-16 0 11
-13z" />
    <path d="M3010 361 c0 -22 5 -43 10 -46 l10 -6 0 40 c0 22 -4 43 -10 46 l-10
6 0 -40z" />
    <path d="M3010 169 l0 -90 10 6 10 6 0 85 0 84 -10 0 -10 0 0 -91z" />
  </g>
  <g transform="translate(0.000000,150.000000) scale(0.100000,-0.100000)" fill="#cbf0e5" stroke="none">
    <path d="M884 1415 c0 -49 1 -71 3 -48 2 23 2 64 0 90 -2 26 -3 8 -3 -42z" />
    <path d="M2144 1250 c0 -85 2 -120 3 -77 2 42 2 112 0 155 -1 42 -3 7 -3 -78z" />
    <path d="M1584 1205 c0 -60 1 -84 3 -52 2 32 2 81 0 110 -2 29 -3 3 -3 -58z" />
    <path d="M884 530 c0 -179 2 -252 3 -162 2 89 2 235 0 325 -1 89 -3 16 -3
-163z" />
    <path d="M1247 413 c-10 -9 -9 -391 1 -396 4 -3 7 87 7 199 0 112 0 204 -1
204 0 0 -4 -3 -7 -7z" />
    <path d="M3008 198 c5 -107 9 -117 11 -25 0 48 -2 87 -6 87 -5 0 -7 -28 -5
-62z" />
    <path d="M598 73 c29 -2 74 -2 100 0 26 2 2 3 -53 3 -55 0 -76 -1 -47 -3z" />
  </g>
  <g transform="translate(0.000000,150.000000) scale(0.100000,-0.100000)" fill="#8edfc7" stroke="none">
    <path d="M1354 1250 c0 -85 2 -120 3 -77 2 42 2 112 0 155 -1 42 -3 7 -3 -78z" />
    <path d="M67 1163 c-5 -7 268 -7 598 0 72 1 -33 4 -232 5 -199 1 -364 -1 -366
-5z" />
    <path d="M1242 758 c2 -203 6 -179 10 70 2 72 0 132 -4 132 -5 0 -7 -91 -6
-202z" />
  </g>
  <g transform="translate(0.000000,150.000000) scale(0.100000,-0.100000)" fill="#c1ede0" stroke="none">
    <path d="M1295 413 c121 -7 253 -7 248 0 -2 4 -70 6 -151 5 -81 -1 -124 -3
-97 -5z" />
    <path d="M1318 95 c-2 -46 0 -81 4 -77 9 9 15 162 6 162 -3 0 -8 -38 -10 -85z" />
    <path d="M198 73 c67 -2 177 -2 245 0 67 1 12 3 -123 3 -135 0 -190 -2 -122
-3z" />
  </g>
  <g transform="translate(0.000000,150.000000) scale(0.100000,-0.100000)" fill="#effaf7" stroke="none">
    <path d="M1944 1270 c0 -58 1 -81 3 -52 2 28 2 76 0 105 -2 28 -3 5 -3 -53z" />
    <path d="M1384 1200 c0 -58 1 -81 3 -52 2 28 2 76 0 105 -2 28 -3 5 -3 -53z" />
    <path d="M3093 180 c0 -47 2 -66 4 -42 2 23 2 61 0 85 -2 23 -4 4 -4 -43z" />
    <path d="M1420 180 l-105 -6 102 -2 102 -2 6 10 c3 6 5 9 3 8 -2 -1 -50 -5
-108 -8z" />
  </g>
  <g transform="translate(0.000000,150.000000) scale(0.100000,-0.100000)" fill="#a2e5d1" stroke="none">
    <path d="M824 1415 c0 -49 1 -71 3 -48 2 23 2 64 0 90 -2 26 -3 8 -3 -42z" />
    <path d="M824 510 c0 -190 2 -267 3 -172 2 94 2 250 0 345 -1 94 -3 17 -3
-173z" />
    <path d="M668 789 c-1 -28 0 -53 5 -56 4 -2 7 21 7 51 0 70 -7 73 -12 5z" />
    <path d="M64 175 c0 -60 1 -84 3 -52 2 32 2 81 0 110 -2 29 -3 3 -3 -58z" />
  </g>
  <g transform="translate(0.000000,150.000000) scale(0.100000,-0.100000)" fill="#e6f7f2" stroke="none">
    <path d="M2274 1265 c0 -60 1 -84 3 -52 2 32 2 81 0 110 -2 29 -3 3 -3 -58z" />
    <path d="M1350 254 c84 -8 178 -8 173 -1 -2 4 -50 6 -106 5 -56 -1 -86 -3 -67
-4z" />
    <path d="M1870 208 c0 -5 33 -7 73 -7 76 2 68 6 -21 11 -28 2 -52 0 -52 -4z" />
  </g>
  <g transform="translate(0.000000,150.000000) scale(0.100000,-0.100000)" fill="#89dec5" stroke="none">
    <path d="M2614 1305 c0 -55 1 -76 3 -47 2 29 2 74 0 100 -2 26 -3 2 -3 -53z" />
    <path d="M1974 1270 c0 -58 1 -81 3 -52 2 28 2 76 0 105 -2 28 -3 5 -3 -53z" />
  </g>
  <g transform="translate(0.000000,150.000000) scale(0.100000,-0.100000)" fill="#dbf4ec" stroke="none">
    <path d="M1345 634 c70 -8 173 -8 168 -1 -2 4 -48 6 -101 5 -53 0 -83 -3 -67
-4z" />
    <path d="M3223 170 c0 -47 2 -66 4 -42 2 23 2 61 0 85 -2 23 -4 4 -4 -43z" />
    <path d="M3303 170 c0 -47 2 -66 4 -42 2 23 2 61 0 85 -2 23 -4 4 -4 -43z" />
  </g>
  <g transform="translate(0.000000,150.000000) scale(0.100000,-0.100000)" fill="#99e2cd" stroke="none">
    <path d="M2244 1265 c0 -60 1 -84 3 -52 2 32 2 81 0 110 -2 29 -3 3 -3 -58z" />
    <path d="M2144 715 c0 -82 2 -115 3 -72 2 43 2 110 0 150 -1 40 -3 5 -3 -78z" />
  </g>
  <g transform="translate(0.000000,150.000000) scale(0.100000,-0.100000)" fill="#baebdd" stroke="none">
    <path d="M2114 1250 c0 -85 2 -120 3 -77 2 42 2 112 0 155 -1 42 -3 7 -3 -78z" />
    <path d="M64 1025 c0 -77 2 -107 3 -67 2 40 2 103 0 140 -2 37 -3 4 -3 -73z" />
  </g>
  <g transform="translate(0.000000,150.000000) scale(0.100000,-0.100000)" fill="#d2f2e8" stroke="none">
    <path d="M2684 665 c0 -55 1 -76 3 -47 2 29 2 74 0 100 -2 26 -3 2 -3 -53z" />
  </g>
  <g transform="translate(0.000000,150.000000) scale(0.100000,-0.100000)" fill="#9fe4cf" stroke="none">
    <path d="M1874 765 c0 -55 1 -76 3 -47 2 29 2 74 0 100 -2 26 -3 2 -3 -53z" />
    <path d="M2283 640 c0 -47 2 -66 4 -42 2 23 2 61 0 85 -2 23 -4 4 -4 -43z" />
    <path d="M2934 115 c0 -55 1 -76 3 -47 2 29 2 74 0 100 -2 26 -3 2 -3 -53z" />
    <path d="M1663 95 c0 -44 2 -61 4 -37 2 23 2 59 0 80 -2 20 -4 1 -4 -43z" />
  </g>
  <g transform="translate(0.000000,150.000000) scale(0.100000,-0.100000)" fill="#b2e9d9" stroke="none">
    <path d="M64 740 c0 -91 2 -128 3 -82 2 45 2 119 0 165 -1 45 -3 8 -3 -83z" />
  </g>
  <g transform="translate(0.000000,150.000000) scale(0.100000,-0.100000)" fill="#ade8d6" stroke="none">
    <path d="M1554 1200 c0 -58 1 -81 3 -52 2 28 2 76 0 105 -2 28 -3 5 -3 -53z" />
    <path d="M1814 655 c0 -49 1 -71 3 -48 2 23 2 64 0 90 -2 26 -3 8 -3 -42z" />
  </g>
  <g transform="translate(0.000000,150.000000) scale(0.100000,-0.100000)" fill="#a8e6d4" stroke="none">
    <path d="M64 430 c0 -91 2 -128 3 -82 2 45 2 119 0 165 -1 45 -3 8 -3 -83z" />
  </g>
  <g transform="translate(0.000000,150.000000) scale(0.100000,-0.100000)" fill="#93e1ca" stroke="none" />
  <g transform="translate(0.000000,150.000000) scale(0.100000,-0.100000)" fill="#e2f6f1" stroke="none" />
  <g transform="translate(0.000000,150.000000) scale(0.100000,-0.100000)" fill="#c7efe3" stroke="none" />
  <g transform="translate(0.000000,150.000000) scale(0.100000,-0.100000)" fill="#ecf8f5" stroke="none" />
</svg>